# xmcd
#
# Track frame offsets: 
#        150
#        16943
#        34119
#        47753
#        60362
#        76526
#        87609
#        99991
#        112354
#        130104
#        143178
#
# Disc length: 2122 seconds
#
# Revision: 0
# Processed by: cddbd v1.5.2PL0 Copyright (c) Steve Scherf et al.
# Submitted via: ExactAudioCopy v0.99pb3
#
DISCID=8808480b
DTITLE=Mitch Webb and The Swindles - Lonely Kind
DYEAR=2008
DGENRE=Country
TTITLE0=Lonely Kind
TTITLE1=West Coast Blues
TTITLE2=Cactus Blooms
TTITLE3=Blubberball
TTITLE4=Dance A Cachuca
TTITLE5=10,000 Years Old
TTITLE6=Best Of My Heart
TTITLE7=Heart To Cave In
TTITLE8=A Man Can Cry
TTITLE9=Pig Song
TTITLE10=Poison Bed
EXTD=
EXTT0=
EXTT1=
EXTT2=
EXTT3=
EXTT4=
EXTT5=
EXTT6=
EXTT7=
EXTT8=
EXTT9=
EXTT10=
PLAYORDER=
